<mxfile host="app.diagrams.net" modified="2023-09-18T08:10:17.379Z" agent="Mozilla/5.0 (Windows NT 10.0; Win64; x64) AppleWebKit/537.36 (KHTML, like Gecko) Chrome/116.0.0.0 Safari/537.36" version="21.7.5" etag="-tiTU3Hz5Y_3ynuTM-H0" type="github">
  <diagram name="Page-1" id="FxS6K-S3b42bTudjh4mw">
    <mxGraphModel>
      <root>
        <mxCell id="0" />
        <mxCell id="1" parent="0" />
      </root>
    </mxGraphModel>
  </diagram>
</mxfile>
